<svg width="103.000000" height="92.000000" viewBox="0 0 103 92" fill="none" xmlns="http://www.w3.org/2000/svg" xmlns:xlink="http://www.w3.org/1999/xlink">
	<desc>
			Created with Pixso.
	</desc>
	<defs/>
	<g opacity="0.100000">
		<path id="“" d="M0 58.197C0 39.3788 2.68594 25.0909 8.05783 15.3333C13.4297 5.57578 22.305 0.464661 34.6837 0L41.3401 13.5909C34.3333 14.2879 29.4286 17.6566 26.6259 23.697C23.8231 29.7374 22.4218 39.495 22.4218 52.9697L40.9898 52.9697L40.9898 92L0 92L0 58.197ZM61.6599 58.197C61.6599 39.3788 64.3458 25.0909 69.7177 15.3333C75.0896 5.57578 83.9648 0.464661 96.3435 0L103 13.5909C95.9932 14.2879 91.0884 17.6566 88.2857 23.697C85.483 29.7374 84.0816 39.495 84.0816 52.9697L102.65 52.9697L102.65 92L61.6599 92L61.6599 58.197Z" fill="#FFFFFF" fill-opacity="1.000000" fill-rule="nonzero"/>
	</g>
</svg>
