<svg width="24.000000" height="24.000000" viewBox="0 0 24 24" fill="none" xmlns="http://www.w3.org/2000/svg" xmlns:xlink="http://www.w3.org/1999/xlink">
	<desc>
			Created with Pixso.
	</desc>
	<defs>
		<clipPath id="clip0_188">
			<rect id="apple 1" width="24.000000" height="24.000000" fill="white" fill-opacity="0"/>
		</clipPath>
	</defs>
	<rect id="apple 1" width="24.000000" height="24.000000" fill="#FFFFFF" fill-opacity="0"/>
	<g clip-path="url(#clip0_188)">
		<path id="Vector" d="M7.078 23.55C6.60501 23.2341 6.18501 22.8469 5.83401 22.3999C5.451 21.937 5.09601 21.45 4.77 20.946C4.00401 19.8259 3.40501 18.6011 2.99001 17.3101C2.49001 15.8081 2.24701 14.3701 2.24701 12.9631C2.24701 11.3931 2.58701 10.0229 3.24901 8.87305C3.73901 7.97314 4.46901 7.21997 5.34901 6.69092C6.19901 6.16113 7.18901 5.87109 8.18901 5.85107C8.53902 5.85107 8.91901 5.90112 9.31902 6.00098C9.60901 6.08105 9.95901 6.21094 10.389 6.37109C10.939 6.58105 11.239 6.71094 11.339 6.74097C11.659 6.86108 11.929 6.91113 12.139 6.91113C12.299 6.91113 12.529 6.86108 12.784 6.78101C12.929 6.73096 13.204 6.64111 13.594 6.47095C13.98 6.33105 14.286 6.21094 14.529 6.12109C14.899 6.01099 15.257 5.91113 15.579 5.86108C15.969 5.80103 16.356 5.78101 16.727 5.81104C17.437 5.86108 18.087 6.01099 18.667 6.23096C19.687 6.64111 20.51 7.28101 21.124 8.19092C20.864 8.35107 20.624 8.53711 20.399 8.74097C19.912 9.17114 19.499 9.68091 19.169 10.2461C18.739 11.0161 18.519 11.886 18.525 12.7661C18.54 13.8491 18.815 14.801 19.365 15.626C19.752 16.2261 20.269 16.74 20.899 17.1621C21.209 17.3721 21.481 17.5171 21.739 17.6121C21.619 17.9871 21.487 18.3521 21.334 18.7119C20.987 19.519 20.574 20.292 20.084 21.022C19.652 21.6521 19.312 22.1221 19.054 22.4321C18.652 22.9121 18.264 23.272 17.874 23.5291C17.444 23.814 16.939 23.9651 16.422 23.9651C16.072 23.98 15.722 23.9351 15.388 23.8381C15.098 23.7429 14.812 23.636 14.532 23.5151C14.239 23.3811 13.936 23.2671 13.627 23.175C13.247 23.075 12.857 23.0271 12.463 23.0281C12.063 23.0281 11.673 23.0781 11.303 23.1731C10.993 23.261 10.693 23.3691 10.396 23.498C9.97601 23.6731 9.701 23.7881 9.54102 23.8381C9.21701 23.9341 8.88501 23.9919 8.55101 24.0129C8.03101 24.0129 7.54701 23.863 7.065 23.563L7.078 23.55ZM13.932 5.09009C13.252 5.42993 12.606 5.57397 11.959 5.52612C11.859 4.88013 11.959 4.21606 12.229 3.48901C12.469 2.86914 12.789 2.30908 13.229 1.80908C13.689 1.28906 14.239 0.859131 14.859 0.549072C15.519 0.208984 16.149 0.0290527 16.749 -0.000976562C16.829 0.678955 16.749 1.34912 16.499 2.06909C16.271 2.70898 15.931 3.29907 15.499 3.8291C15.064 4.34912 14.524 4.77905 13.913 5.08911L13.932 5.09009Z" fill="#FFFFFF" fill-opacity="1.000000" fill-rule="nonzero"/>
	</g>
</svg>
