<svg width="24.000000" height="24.000000" viewBox="0 0 24 24" fill="none" xmlns="http://www.w3.org/2000/svg" xmlns:xlink="http://www.w3.org/1999/xlink">
	<desc>
			Created with Pixso.
	</desc>
	<defs/>
	<path id="Vector" d="M12 0C8.74 0 8.333 0.0148926 7.053 0.0720215C5.775 0.13208 4.905 0.333008 4.14 0.629883C3.351 0.936035 2.681 1.34692 2.014 2.01392C1.347 2.68091 0.935001 3.3501 0.630001 4.13989C0.333 4.90503 0.131001 5.7749 0.0719986 7.05298C0.012001 8.33301 0 8.73999 0 12C0 15.26 0.0149994 15.667 0.0719986 16.947C0.132 18.2241 0.333 19.095 0.630001 19.8601C0.936001 20.6479 1.347 21.3191 2.014 21.9861C2.681 22.6521 3.35 23.0649 4.14 23.3701C4.906 23.666 5.776 23.8689 7.053 23.928C8.333 23.988 8.74 24 12 24C15.26 24 15.667 23.9851 16.947 23.928C18.224 23.8679 19.095 23.666 19.86 23.3701C20.648 23.064 21.319 22.6521 21.986 21.9861C22.652 21.3191 23.065 20.6509 23.37 19.8601C23.666 19.095 23.869 18.2241 23.928 16.947C23.988 15.667 24 15.26 24 12C24 8.73999 23.985 8.33301 23.928 7.05298C23.868 5.77588 23.666 4.90405 23.37 4.13989C23.064 3.35107 22.652 2.68091 21.986 2.01392C21.319 1.34692 20.651 0.935059 19.86 0.629883C19.095 0.333008 18.224 0.131104 16.947 0.0720215C15.667 0.0119629 15.26 0 12 0ZM12 2.15991C15.203 2.15991 15.585 2.17603 16.85 2.23096C18.02 2.28589 18.655 2.47998 19.077 2.646C19.639 2.86304 20.037 3.12305 20.459 3.54199C20.878 3.96191 21.138 4.36108 21.355 4.9231C21.519 5.34497 21.715 5.97998 21.768 7.1499C21.825 8.41602 21.838 8.7959 21.838 12C21.838 15.2041 21.823 15.585 21.764 16.8501C21.703 18.02 21.508 18.655 21.343 19.0769C21.119 19.6389 20.864 20.0371 20.444 20.459C20.025 20.8779 19.62 21.1379 19.064 21.355C18.644 21.519 17.999 21.7151 16.829 21.7681C15.555 21.825 15.18 21.8379 11.97 21.8379C8.759 21.8379 8.384 21.823 7.111 21.7639C5.94 21.7029 5.295 21.5081 4.875 21.343C4.306 21.1189 3.915 20.864 3.496 20.4441C3.075 20.0249 2.806 19.6201 2.596 19.064C2.431 18.644 2.237 17.999 2.176 16.8291C2.131 15.5691 2.115 15.1799 2.115 11.9851C2.115 8.78906 2.131 8.39893 2.176 7.12402C2.237 5.9541 2.431 5.31006 2.596 4.88989C2.806 4.32007 3.075 3.92993 3.496 3.50903C3.915 3.09009 4.306 2.82007 4.875 2.61108C5.295 2.44507 5.926 2.25 7.096 2.18994C8.371 2.14502 8.746 2.12988 11.955 2.12988L12 2.15991ZM12 5.83789C8.595 5.83789 5.838 8.5979 5.838 12C5.838 15.405 8.598 18.1621 12 18.1621C15.405 18.1621 18.162 15.4021 18.162 12C18.162 8.59497 15.402 5.83789 12 5.83789ZM12 16C9.79 16 8 14.21 8 12C8 9.79004 9.79 8 12 8C14.21 8 16 9.79004 16 12C16 14.21 14.21 16 12 16ZM19.846 5.59497C19.846 6.38989 19.2 7.03491 18.406 7.03491C17.611 7.03491 16.966 6.38892 16.966 5.59497C16.966 4.80103 17.612 4.15601 18.406 4.15601C19.199 4.15503 19.846 4.80103 19.846 5.59497Z" fill="#FFFFFF" fill-opacity="1.000000" fill-rule="nonzero"/>
</svg>
