<svg width="24.000000" height="24.000000" viewBox="0 0 24 24" fill="none" xmlns="http://www.w3.org/2000/svg" xmlns:xlink="http://www.w3.org/1999/xlink">
	<desc>
			Created with Pixso.
	</desc>
	<defs/>
	<path id="Vector" d="M12 0C5.39999 0 0 5.3999 0 12C0 18.6001 5.39999 24 12 24C18.6 24 24 18.6001 24 12C24 5.3999 18.66 0 12 0ZM17.521 17.3401C17.281 17.699 16.861 17.8201 16.5 17.5801C13.68 15.8401 10.14 15.479 5.939 16.439C5.521 16.561 5.16 16.26 5.03999 15.8999C4.92 15.479 5.22 15.1201 5.58 15C10.14 13.979 14.1 14.3999 17.22 16.3201C17.64 16.5 17.699 16.979 17.521 17.3401ZM18.961 14.04C18.66 14.46 18.12 14.6399 17.699 14.3401C14.46 12.3601 9.53999 11.76 5.75999 12.96C5.28101 13.0801 4.74001 12.8401 4.62 12.3601C4.5 11.8799 4.74001 11.3391 5.22 11.219C9.60001 9.8999 15 10.561 18.72 12.8401C19.081 13.021 19.26 13.6201 18.961 14.04ZM19.081 10.6799C15.24 8.3999 8.82001 8.15991 5.16 9.30103C4.56 9.47998 3.96001 9.12012 3.78 8.58008C3.60001 7.979 3.96001 7.37988 4.5 7.19897C8.75999 5.93896 15.78 6.17896 20.221 8.82007C20.76 9.12012 20.94 9.84009 20.64 10.3799C20.341 10.801 19.62 10.979 19.081 10.6799Z" fill="#FFFFFF" fill-opacity="1.000000" fill-rule="nonzero"/>
</svg>
