<svg width="24.001007" height="19.507080" viewBox="0 0 24.001 19.5071" fill="none" xmlns="http://www.w3.org/2000/svg" xmlns:xlink="http://www.w3.org/1999/xlink">
	<desc>
			Created with Pixso.
	</desc>
	<defs/>
	<path id="Vector" d="M23.954 2.323C23.069 2.71191 22.124 2.97705 21.129 3.0979C22.143 2.48706 22.923 1.52393 23.292 0.375C22.341 0.929932 21.287 1.33398 20.165 1.55908C19.269 0.600098 17.992 0 16.574 0C13.857 0 11.654 2.20288 11.654 4.91699C11.654 5.30688 11.699 5.68188 11.781 6.04102C7.69099 5.8479 4.066 3.88403 1.64 0.915039C1.213 1.63696 0.973999 2.47607 0.973999 3.38989C0.973999 5.1001 1.844 6.60303 3.162 7.48608C2.355 7.45996 1.596 7.23804 0.933998 6.87012L0.933998 6.93091C0.933998 9.31592 2.627 11.3049 4.88 11.7581C4.467 11.8689 4.031 11.929 3.584 11.929C3.27 11.929 2.969 11.8989 2.668 11.843C3.299 13.7959 5.11301 15.22 7.272 15.26C5.592 16.5791 3.463 17.365 1.17 17.365C0.779999 17.365 0.390999 17.342 0 17.2981C2.189 18.6919 4.768 19.5071 7.55701 19.5071C16.611 19.5071 21.556 12.011 21.556 5.521C21.556 5.31201 21.556 5.10107 21.541 4.89111C22.502 4.2019 23.341 3.33105 24.001 2.34302L23.954 2.323Z" fill="#FFFFFF" fill-opacity="1.000000" fill-rule="nonzero"/>
</svg>
