<svg width="24.000072" height="16.772949" viewBox="0 0 24.0001 16.7729" fill="none" xmlns="http://www.w3.org/2000/svg" xmlns:xlink="http://www.w3.org/1999/xlink">
	<desc>
			Created with Pixso.
	</desc>
	<defs/>
	<path id="Vector" d="M23.4992 2.59009C23.3601 2.09155 23.0948 1.63745 22.7288 1.27148C22.3629 0.905518 21.9087 0.640137 21.4102 0.500977C19.5402 0 12.0102 0 12.0102 0C12.0102 0 4.50119 -0.0100098 2.61119 0.500977C2.11277 0.640381 1.65871 0.906006 1.29294 1.27197C0.927162 1.63818 0.662037 2.09253 0.523197 2.59106C0.168404 4.50586 -0.00669098 6.44971 0.00019455 8.39697C-0.00538254 10.3374 0.169704 12.2742 0.523197 14.1821C0.662186 14.6804 0.927376 15.1345 1.29314 15.5005C1.65891 15.8665 2.11288 16.1318 2.61119 16.271C4.48019 16.7729 12.0112 16.7729 12.0112 16.7729C12.0112 16.7729 19.5192 16.7729 21.4102 16.271C21.9088 16.1318 22.3631 15.8665 22.729 15.5002C23.095 15.134 23.3603 14.6797 23.4992 14.1809C23.8449 12.2727 24.0123 10.3364 23.9992 8.39697C24.0138 6.44971 23.8464 4.50513 23.4992 2.58911L23.4992 2.59009ZM9.6082 11.99L9.6082 4.79395L15.8742 8.39795L9.6082 11.99Z" fill="#FFFFFF" fill-opacity="1.000000" fill-rule="nonzero"/>
</svg>
